<?xml version="1.0" encoding="utf-8"?>
<!-- Generator: Adobe Illustrator 24.0.2, SVG Export Plug-In . SVG Version: 6.00 Build 0)  -->
<svg version="1.1" id="Capa_1" xmlns="http://www.w3.org/2000/svg" xmlns:xlink="http://www.w3.org/1999/xlink" x="0px" y="0px"
	 viewBox="0 0 552 548" style="enable-background:new 0 0 552 548;" xml:space="preserve">
<style type="text/css">
	.st0{fill:#666464;}
	.st1{fill:none;stroke:#666464;stroke-width:4;stroke-miterlimit:10;}
	.st2{fill:#3D6A29;}
	.st3{fill:#6BB84C;}
	.st4{fill:#F3FFF1;}
</style>
<g>
	<g>
		<g>
			<path class="st0" d="M55.2,457.74v-36.36h5.08v36.36H55.2z M66.78,447.61c-1.61,0-3.01-0.39-4.21-1.16
				c-1.2-0.77-2.08-1.86-2.64-3.27l0.35-5.4c0,1.11,0.2,2.06,0.6,2.84s0.98,1.38,1.73,1.79s1.67,0.62,2.75,0.62
				c1.68,0,2.98-0.51,3.9-1.53c0.92-1.02,1.38-2.46,1.38-4.32v-5.6c0-1.89-0.46-3.36-1.38-4.41c-0.92-1.05-2.22-1.57-3.9-1.57
				c-1.08,0-2,0.2-2.75,0.6s-1.33,0.98-1.73,1.74s-0.6,1.69-0.6,2.79l-0.52-4.98c0.78-1.51,1.8-2.68,3.06-3.5
				c1.26-0.82,2.66-1.23,4.21-1.23c2.77,0,4.91,0.92,6.42,2.75c1.51,1.83,2.27,4.43,2.27,7.78v5.63c0,3.3-0.78,5.87-2.34,7.7
				C71.81,446.69,69.61,447.61,66.78,447.61z"/>
			<path class="st0" d="M111.94,421.38v15.71c0,1.81,0.46,3.21,1.38,4.2c0.92,0.99,2.22,1.48,3.9,1.48c1.68,0,2.97-0.44,3.87-1.33
				c0.9-0.89,1.36-2.14,1.36-3.75l0.35,5.4c-0.46,1.16-1.28,2.2-2.44,3.13c-1.16,0.92-2.68,1.38-4.56,1.38
				c-2.86,0-5.06-0.92-6.61-2.75s-2.33-4.42-2.33-7.76v-15.71H111.94z M122.45,447.23v-25.85h5.06v25.85H122.45z"/>
			<path class="st0" d="M159.14,447.23v-36.21h5.08v36.21H159.14z M170.72,447.61c-1.61,0-3.01-0.39-4.21-1.16
				c-1.2-0.77-2.08-1.86-2.64-3.27l0.35-5.4c0,1.11,0.2,2.06,0.6,2.84s0.98,1.38,1.73,1.79s1.67,0.62,2.75,0.62
				c1.68,0,2.98-0.51,3.9-1.53c0.92-1.02,1.38-2.46,1.38-4.32v-5.6c0-1.89-0.46-3.36-1.38-4.41c-0.92-1.05-2.22-1.57-3.9-1.57
				c-1.08,0-2,0.2-2.75,0.6s-1.33,0.98-1.73,1.74s-0.6,1.69-0.6,2.79l-0.52-4.98c0.78-1.51,1.8-2.68,3.06-3.5
				c1.26-0.82,2.66-1.23,4.21-1.23c2.77,0,4.91,0.92,6.42,2.75c1.51,1.83,2.27,4.43,2.27,7.78v5.63c0,3.3-0.78,5.87-2.34,7.7
				C175.76,446.69,173.56,447.61,170.72,447.61z"/>
			<path class="st0" d="M215.88,411.03v29.53c0,0.61,0.14,1.1,0.41,1.44c0.27,0.35,0.66,0.52,1.16,0.52h2.39v4.83h-2.99
				c-1.91,0-3.4-0.6-4.46-1.79c-1.06-1.2-1.59-2.88-1.59-5.06v-29.48H215.88z"/>
			<path class="st0" d="M249.49,416.11v-5.08h5.08v5.08H249.49z M249.49,447.23v-25.85h5.08v25.85H249.49z"/>
			<path class="st0" d="M296.64,447.61c-3.55,0-6.3-0.98-8.26-2.94c-1.95-1.96-2.93-4.72-2.93-8.29v-4.26
				c0-3.54,0.98-6.27,2.93-8.21c1.95-1.93,4.7-2.9,8.26-2.9c2.03,0,3.85,0.36,5.48,1.07s2.92,1.74,3.88,3.06l-3.66,3.29
				c-0.71-0.83-1.56-1.47-2.54-1.92c-0.98-0.45-2.01-0.67-3.09-0.67c-1.96,0-3.48,0.55-4.56,1.64c-1.08,1.1-1.62,2.64-1.62,4.63
				v4.26c0,2.04,0.54,3.62,1.62,4.73c1.08,1.11,2.6,1.67,4.56,1.67c1.08,0,2.11-0.24,3.09-0.72c0.98-0.48,1.83-1.16,2.54-2.04
				l3.66,3.54c-0.96,1.29-2.26,2.29-3.9,3C300.47,447.25,298.65,447.61,296.64,447.61z"/>
			<path class="st0" d="M335.52,416.11v-5.08h5.08v5.08H335.52z M335.52,447.23v-25.85h5.08v25.85H335.52z"/>
			<path class="st0" d="M380.44,447.68c-2.86,0-5.06-0.92-6.61-2.75c-1.55-1.83-2.33-4.42-2.33-7.76v-5.7
				c0-3.35,0.76-5.95,2.28-7.78c1.52-1.83,3.66-2.75,6.41-2.75c1.53,0,2.93,0.4,4.2,1.2c1.27,0.8,2.29,1.92,3.08,3.36l-0.52,5.28
				c0-1.1-0.2-2.03-0.6-2.81s-0.98-1.37-1.73-1.78c-0.76-0.41-1.67-0.61-2.75-0.61c-1.68,0-2.98,0.52-3.9,1.57
				c-0.92,1.04-1.38,2.51-1.38,4.41v5.63c0,1.88,0.46,3.32,1.38,4.35c0.92,1.02,2.22,1.53,3.9,1.53c1.08,0,2-0.21,2.75-0.63
				c0.75-0.42,1.33-1.03,1.73-1.83s0.6-1.75,0.6-2.86l0.35,5.45c-0.46,1.16-1.27,2.2-2.4,3.13
				C383.74,447.22,382.26,447.68,380.44,447.68z M386.93,447.23v-36.21h5.08v36.21H386.93z"/>
			<path class="st0" d="M431.92,447.61c-3.17,0-5.55-0.66-7.13-1.97s-2.38-3.32-2.38-6.03c0-2.57,0.73-4.5,2.18-5.76
				c1.45-1.27,3.63-1.91,6.54-1.91h7.35l0.35,4.08h-7.67c-1.31,0-2.3,0.29-2.96,0.88c-0.66,0.59-1,1.49-1,2.7
				c0,1.31,0.44,2.28,1.32,2.91c0.88,0.63,2.2,0.95,3.96,0.95c1.93,0,3.37-0.21,4.33-0.62s1.44-1.06,1.44-1.94l0.52,3.64
				c-0.45,0.7-1,1.27-1.67,1.72c-0.66,0.45-1.42,0.78-2.28,1.01C433.97,447.5,433,447.61,431.92,447.61z M438.25,447.23v-16.39
				c0-1.69-0.45-3.01-1.36-3.95c-0.91-0.94-2.19-1.41-3.85-1.41c-1.01,0-2.01,0.15-3,0.46c-0.99,0.31-1.87,0.75-2.65,1.33
				l-3.71-2.54c0.98-1.18,2.27-2.1,3.87-2.75c1.6-0.66,3.38-0.98,5.34-0.98c3.24,0,5.74,0.84,7.52,2.52
				c1.78,1.68,2.66,4.04,2.66,7.1v16.61H438.25z"/>
			<path class="st0" d="M482.91,447.68c-2.86,0-5.06-0.92-6.61-2.75c-1.55-1.83-2.33-4.42-2.33-7.76v-5.7
				c0-3.35,0.76-5.95,2.28-7.78c1.52-1.83,3.66-2.75,6.41-2.75c1.53,0,2.93,0.4,4.2,1.2c1.27,0.8,2.29,1.92,3.08,3.36l-0.52,5.28
				c0-1.1-0.2-2.03-0.6-2.81s-0.98-1.37-1.73-1.78c-0.76-0.41-1.67-0.61-2.75-0.61c-1.68,0-2.98,0.52-3.9,1.57
				c-0.92,1.04-1.38,2.51-1.38,4.41v5.63c0,1.88,0.46,3.32,1.38,4.35c0.92,1.02,2.22,1.53,3.9,1.53c1.08,0,2-0.21,2.75-0.63
				c0.75-0.42,1.33-1.03,1.73-1.83s0.6-1.75,0.6-2.86l0.35,5.45c-0.46,1.16-1.27,2.2-2.4,3.13
				C486.22,447.22,484.74,447.68,482.91,447.68z M489.41,447.23v-36.21h5.08v36.21H489.41z"/>
		</g>
	</g>
</g>
<line class="st1" x1="59.5" y1="406.5" x2="490.5" y2="406.5"/>
<path class="st2" d="M99.5,296c0,0-46,71-36,84s35.23-34.91,46.5-47c3.27-3.5,14.7-9.81,19,2.5c3.34,9.56,4,38,11,39
	c6.02,0.86,9-8.5,9-8.5s10-27.5,14-31.5s13-7,18,1s31,37,56,37s64-34,64-34v-26c0,0-35,39-49,43s-27.36,2.36-34-3
	c-11.03-8.91-22-36-43-37s-24,21-28,19c-6.89-3.44-10-18-25-18s-26,13-26,13S112,290.5,99.5,296z"/>
<path class="st3" d="M298.5,394.5c0,0-1.68-69.47,3-92c5.5-26.5,18-71,27-93s55-120,77-115s-20,105-20,105l-39,66
	c0,0-14.89,16.96-17,24c-3,10-12,39-8,39s33-46,43-47s12,10,6,17s-27,32-27,32v12c0,0,12,34,32,36s36,0,36,0s31-8,46-36s22-43,22-43
	s15-4,11,10s-19,45-25,52s-22,32-66,34c-18.98,0.86-44-5-54-19s-9.08-19.23-14.5-23.5c-1.38-1.08-5.72-1.19-7,0
	c-7.75,7.21-2.5,34.5-8.5,41.5S303.5,400.5,298.5,394.5z"/>
<path class="st4" d="M333.94,250.22c0,0,31.36-42.74,41.53-62.65s27.53-62.77,25.59-69.79c-1.94-7.02-19.16,18.84-28.29,33.76
	C363.64,166.47,334.15,224.22,333.94,250.22z"/>
<line class="st1" x1="60" y1="457.5" x2="491" y2="457.5"/>
</svg>
